# xmcd
#
# Track frame offsets: 
#        150
#        22858
#        78323
#        130232
#        163037
#        168900
#        204410
#
# Disc length: 3418 seconds
#
# Revision: 1
# Processed by: cddbd v1.5.2PL0 Copyright (c) Steve Scherf et al.
# Submitted via: ExactAudioCopy v1.0b6
#
DISCID=4b0d5807
DTITLE=Coil - Musick To Play In The Dark²
DYEAR=2000
DGENRE=Electronic
TTITLE0=Something
TTITLE1=Tiny Golden Books
TTITLE2=Ether
TTITLE3=Paranoid Inlay
TTITLE4=An Emergency
TTITLE5=Where Are You?
TTITLE6=Batwings (A Limnal Hymn)
EXTD=
EXTT0=
EXTT1=
EXTT2=
EXTT3=
EXTT4=
EXTT5=
EXTT6=
PLAYORDER=
